<svg xmlns="http://www.w3.org/2000/svg" viewBox="0 0 617.3 830.97"><defs><style>.cls-1{fill:#fff;}</style></defs><title>logo</title><g id="Layer_2" data-name="Layer 2"><g id="Layer_1-2" data-name="Layer 1"><g id="Group_901" data-name="Group 901"><path id="Path_1275" data-name="Path 1275" class="cls-1" d="M308.5,831a86.71,86.71,0,0,1-43.3-11.6l-222-128.2A86.51,86.51,0,0,1,0,616.27V360a86.68,86.68,0,0,1,43.3-75l106.4-61.4a11.8,11.8,0,0,1,11.8,20.3L55.1,305.37A63.11,63.11,0,0,0,23.6,360v256.3a63.33,63.33,0,0,0,31.5,54.6l222,128.2a63.45,63.45,0,0,0,63.1,0l221.9-128.2a63.11,63.11,0,0,0,31.5-54.6V360a63.33,63.33,0,0,0-31.5-54.6l-103.8-59.9a11.89,11.89,0,0,1,11.9-20.4L574,285a86.76,86.76,0,0,1,43.3,75v256.3a86.68,86.68,0,0,1-43.3,75L352,819.37A86.15,86.15,0,0,1,308.5,831Z"/></g><path class="cls-1" d="M544.92,320.9l-115.5-66.7V15.4a15.2,15.2,0,0,0-30.4-.6V236.6l-63.8-36.8a53.26,53.26,0,0,0-10.1-4.4V76a15.27,15.27,0,0,0-30.5,0V194.6a54.21,54.21,0,0,0-12.7,5.3l-61.1,35.3V156.4a15.25,15.25,0,1,0-30.5-.1v96.4L72.22,320.9A53.16,53.16,0,0,0,45.62,367V609.2a53.16,53.16,0,0,0,26.6,46.1L282,776.5a53.22,53.22,0,0,0,53.2,0L545,655.3a53.16,53.16,0,0,0,26.6-46.1V367.1A53.51,53.51,0,0,0,544.92,320.9ZM308.52,588.3l86.8-50.1,53.8,31-140.6,81.2-140.6-81.2V406.9l140.6-81.2,140.6,81.2L395.32,438l-86.8-50.3L221.72,438V538.2Z"/></g></g></svg>